<svg version="1" xmlns="http://www.w3.org/2000/svg" width="682.667" height="682.667" viewBox="0 0 512.000000 512.000000"><path d="M251.9.4c-.2.2-3.3.6-6.9 1-3.6.3-7.8.8-9.5 1.1-1.6.3-4.1.7-5.5.9-1.4.3-2.5.5-2.5.6 0 .1-1.1.3-2.5.4-7.4.8-21.8 4.6-34.2 9-5.3 1.8-10 3.1-10.3 2.8-.3-.3-.5 0-.5.6s-1.4 1.3-3.1 1.7c-4.6 1-32.2 15.3-42.2 21.9-9.1 6-22.7 16-28.7 21.1-15.3 13.3-35 35.6-46.2 52.6-14.1 21.2-26.9 48.8-32.9 70.9-.7 2.5-1.4 4.9-1.5 5.5-.6 2.2-1.5 6.1-2 8.5-.3 1.4-.7 3.3-1 4.2-.7 2.3-1.3 5.6-2 10.8-.3 2.5-.8 4.8-1 5.1-.9 1.6-1.9 19.7-1.9 36.9 0 17.4.6 29 2 36.1.3 1.3.7 4.1 1.1 6.4.8 5.5 3.3 17.6 3.9 18.4.2.4.7 2.3 1 4.1.7 4 7.6 24.6 10.1 30.5 1 2.2 1.8 4.2 1.9 4.5.2 1.1 4.8 10.8 7.3 15.5 1.4 2.7 3.1 6 3.7 7.2.5 1.3 1.3 2.3 1.7 2.3.3 0 2.8-1.7 5.5-3.7 8.6-6.6 12.8-9.8 13.3-10.3.3-.3 3.4-2.8 7-5.5 3.6-2.8 7.2-5.5 8-6.2 1.5-1.2 11.1-8.7 17.1-13.3 6-4.6 19.4-15.1 20.9-16.3 1.9-1.5 10.4-8.1 10.7-8.2.1 0-1.4-4.2-3.3-9.3-1.9-5.1-3.9-11.3-4.4-13.8-.6-2.4-1.4-6.3-1.9-8.7-1.7-7.5-3.1-20.3-3.2-29.2-.2-5.4 1.6-24.2 2.5-27.2.3-1 .7-3.6 1.1-5.8.3-2.2 1-5.4 1.5-7 .6-1.7 1.7-5.3 2.6-8 9.9-31.6 33.7-62.7 61.9-80.7 15.3-9.8 29.9-16.3 46-20.4 2.2-.6 17.1-3.2 18.5-3.3.8-.1 3.3-.3 5.5-.6 4.9-.5 22.5-.6 28.2 0 3.6.3 10.1 1.4 18.2 3 4.6.9 13.7 3.6 20.6 6.3 3.9 1.4 7.2 2.7 7.5 2.7 2.5.4 25.4 13.7 27.5 15.9.6.6 2.8 2.3 5 3.8 5.5 3.8 19.2 17.3 25.8 25.6 8.2 10.1 16.9 24.8 21.8 36.7 1.5 3.7 7 20 6.9 20.5 0 .3.4 2.5 1 5 1.1 5 1.8 9.6 2.9 18.5.8 6.8.6 27.5-.3 32-.4 1.6-.9 4.8-1.1 7-.3 2.2-.8 5.3-1.2 7-.4 1.6-.7 3.2-.8 3.5-1 4.8-4.8 15.8-7.8 23-.5 1.4-1.1 3-1.2 3.5-.7 2.9-9.8 18.6-15.5 26.7-6.7 9.5-19.8 23.4-28.5 30.3-2.7 2.2-5.1 4.3-5.3 4.7-.2.5-.8.8-1.2.8-.5 0-3.5 1.8-6.6 4-3.2 2.2-6.3 4-7 4-.7 0-1.4.4-1.6.8-.5 1.2-15.2 8.1-23.3 10.9-7.7 2.6-16.1 4.9-21.5 5.8-1.9.3-4.2.8-5 1-7 2.1-34.9 2.2-49 .1-6.5-1-23.1-5.6-30.5-8.5-6.2-2.5-21.9-10.5-27.3-14l-6.3-4.1-15.8 12.2c-8.7 6.8-17.3 13.4-19.1 14.8-1.9 1.4-4.7 3.6-6.4 5-5.3 4.3-6 4.9-11.7 9.2-14.4 10.9-29.9 23.1-29.9 23.5 0 2.1 26.2 21.7 40.1 30 12.4 7.4 28.5 15.7 34.9 17.8.3.1 1.9.7 3.5 1.4 8.8 3.7 32.1 10.7 39 11.8 1.7.2 4.6.8 6.5 1.3 1.9.4 4.2.8 5 .8 1.4.1 4.2.5 11.5 1.7 12.8 2.2 51.9 2.3 63 .1 1.1-.2 4.2-.7 6.8-1 6.1-.9 23.3-4.4 27.2-5.6 1.7-.5 6.2-1.9 10-3 3.9-1.2 7.7-2.4 8.5-2.7.8-.3 1.7-.7 2-.8 3.9-.9 20.7-8.2 29.5-12.7 14-7.2 35.4-20.7 36.3-23 .2-.4 1-.8 1.7-.8s1.5-.3 1.7-.8c.2-.4 2.6-2.5 5.3-4.7 12.3-9.8 27-24.5 38-38 8.1-10 23.6-32.6 22.9-33.6-.2-.4-2.7-1-5.6-1.4-2.9-.4-6-.8-6.8-1-.8-.2-3.3-.6-5.5-1-2.2-.3-6.4-1-9.3-1.6-2.9-.6-6.5-1.2-8-1.4-2.2-.3-12.3-2-23.7-3.9-1.1-.2-3.8-.7-6-1.1-2.2-.3-5-.8-6.3-1.1l-2.3-.5 2.9-4.2c14.7-21.3 27-55.2 29.7-81.7.2-1.9.4-3.5.5-3.5.8 0 1.2-30.3.6-38-.8-9-1.6-16.1-2.2-18.5-.7-3.4-1.3-6.5-1.8-9.5-1.1-6.2-6.8-24.5-9.7-31.2-1.1-2.4-1.9-4.6-1.9-4.9 0-.9-8.3-17.1-10.9-21.5-1.2-1.9-2.4-4.1-2.8-4.9-.4-.8-1.2-2.1-1.9-3-.7-.8-4-5.1-7.2-9.5-6.2-8.4-20.5-23.4-27-28.2-2-1.5-3.9-3.1-4.2-3.4-.6-.8-19.9-13.7-21.5-14.3-.5-.3-.2-1 .7-1.6.9-.6 2.4-1.7 3.2-2.5.8-.8 1.7-1.5 2-1.5.6 0 32.9-22.1 49.4-33.7l6.2-4.4-6.2-4.3c-29.9-20.5-63.6-34.7-97.3-41.2-2.2-.4-4.7-.9-5.5-1-.8-.2-3.5-.6-6-.9-2.5-.3-6.1-.8-8-1.1-3.7-.7-49.5-1.5-50.1-1z"/><path d="M257.9 127.4c-.2.2-2.4.6-4.9 1-2.5.3-5.2.7-6 .9-.8.2-3.3.8-5.5 1.2-5.1 1.2-4.6 1-7.8 2.3-1.6.7-3.2 1.2-3.6 1.2-1.3 0-11.2 4.4-17.1 7.5-3 1.6-5.8 2.8-6.2 2.7-.5-.1-.8.2-.8.7 0 .5-.9 1.3-2 1.6-2.1.7-5 5.3-5 7.9 0 2.3 4.2 6.6 7 6.9 1.6.3 5.8-1.4 11.5-4.4 7.2-3.8 18.5-8.8 21.5-9.4.3-.1 2.3-.6 4.5-1.3 18-5.1 39.2-4.6 59.3 1.4.7.2 1.6.4 2 .5.4 0 1.3.5 2 1.1.6.6 1.2.8 1.2.5 0-.8 13.5 5.9 19.5 9.6 7.4 4.5 18.2 13.4 24.5 19.9 5.9 6.2 8.9 7.4 13.1 5.2 3-1.5 3.9-3.2 3.9-7.5 0-6.6-27.5-29.7-45-37.7-8.3-3.9-17-7.3-17-6.7 0 .2-1.2-.2-2.7-1-1.5-.8-3-1.2-3.5-.9-.4.3-1.6.1-2.5-.5-1-.5-4.1-1.2-6.8-1.6-5.6-.8-33-1.7-33.6-1.1z"/></svg>