<?xml version="1.0" standalone="no"?>
<!DOCTYPE svg PUBLIC "-//W3C//DTD SVG 20010904//EN"
 "http://www.w3.org/TR/2001/REC-SVG-20010904/DTD/svg10.dtd">
<svg version="1.0" xmlns="http://www.w3.org/2000/svg"
 width="451.000000pt" height="451.000000pt" viewBox="0 0 451.000000 451.000000"
 preserveAspectRatio="xMidYMid meet">
<metadata>
Created by potrace 1.14, written by Peter Selinger 2001-2017
</metadata>
<g transform="translate(0.000000,451.000000) scale(0.100000,-0.100000)"
fill="#000000" stroke="none">
<path d="M2307 4504 c-1 -1 -49 -5 -107 -8 -58 -3 -114 -8 -125 -10 -11 -2
-45 -7 -75 -11 -30 -3 -111 -20 -179 -36 -714 -173 -1294 -675 -1565 -1357
-35 -86 -82 -231 -90 -277 -2 -11 -9 -38 -14 -60 -6 -22 -13 -56 -16 -75 -3
-19 -8 -46 -10 -59 -3 -13 -8 -49 -11 -80 -4 -31 -8 -67 -11 -81 -6 -36 -7
-365 0 -387 2 -10 7 -46 11 -81 9 -100 43 -265 80 -387 142 -467 444 -888 840
-1171 225 -161 484 -282 744 -349 53 -14 114 -27 136 -31 22 -3 42 -7 45 -9 3
-2 33 -7 65 -10 33 -4 69 -9 80 -12 37 -8 390 -10 450 -2 33 4 85 11 115 14
211 26 487 114 700 223 448 231 806 601 1016 1054 l22 46 -221 97 c-122 54
-244 108 -272 121 -69 31 -375 164 -402 174 -19 8 -25 1 -58 -63 -139 -269
-377 -482 -662 -591 -225 -87 -487 -105 -732 -52 -196 43 -445 182 -595 332
-141 141 -274 363 -318 534 -93 356 -55 672 117 974 123 217 322 401 546 505
86 40 191 77 243 87 16 3 32 7 36 9 3 2 29 7 56 11 27 3 58 8 69 10 31 6 225
5 270 -1 119 -18 170 -29 264 -61 56 -20 104 -34 105 -32 2 2 63 140 136 308
73 168 143 328 155 355 66 147 108 246 104 249 -9 8 -203 77 -282 100 -92 27
-217 54 -282 62 -22 3 -50 7 -62 9 -36 8 -310 24 -316 19z"/>
</g>
</svg>
